<svg width="44" height="42" viewBox="0 0 44 42" fill="none" xmlns="http://www.w3.org/2000/svg">
<path d="M21.4919 41C16.7045 41 11.9202 41 7.13276 41C2.28714 40.9809 -0.843109 37.1273 0.203544 32.4501C1.07575 28.5615 1.94798 24.6696 2.87833 20.7938C3.91853 16.4486 5.54018 15.1236 10.0531 15.047C11.4098 15.0278 11.8654 14.5426 11.7878 13.2527C11.7103 11.9629 11.7588 10.6986 11.7878 9.42156C11.8686 4.12176 16.0681 -0.0159172 21.3336 4.60336e-05C26.5992 0.0160093 30.6308 4.0962 30.6825 9.39919C30.6825 10.7816 30.7374 12.164 30.6825 13.5496C30.6308 14.683 31.138 15.0821 32.2169 15.0246C32.9157 14.9932 33.6157 15.0018 34.3135 15.0502C37.1046 15.2258 39.0202 16.589 39.705 19.2485C40.8647 23.7182 41.9922 28.2167 42.8676 32.7534C43.7721 37.4498 40.5901 40.9777 35.7122 40.9936C30.957 41.0096 26.2245 41 21.4919 41ZM21.3757 38.8067C26.2213 38.8258 31.0669 38.5832 35.9125 38.8354C38.8199 38.9886 41.317 36.2462 40.7387 33.5165C39.7922 29.0468 38.7036 24.5962 37.5761 20.1616C37.0593 18.1183 35.8512 17.3361 33.6706 17.3202C31.6775 17.3202 29.6843 17.3202 27.6944 17.3202C21.5566 17.3202 15.4188 17.3202 9.28103 17.3202C7.12958 17.3202 5.9117 18.0768 5.47236 19.8391C4.35464 24.328 3.24014 28.8233 2.31301 33.3568C1.738 36.1759 4.18989 38.8131 7.01004 38.7843C11.7975 38.7875 16.5979 38.8067 21.3757 38.8067ZM21.3563 15.0182C23.2945 15.0182 25.2328 14.9991 27.171 15.0182C28.0949 15.0182 28.5762 14.699 28.5536 13.7189C28.5181 12.2311 28.6118 10.7401 28.5342 9.24914C28.3178 5.16894 25.1036 2.16145 20.9977 2.33385C17.3183 2.49029 13.9619 5.27429 14.0846 9.44389C14.1234 10.8231 14.1105 12.2087 14.0846 13.5943C14.0685 14.6032 14.5272 15.0342 15.548 15.015C17.4798 14.9959 19.418 15.0182 21.3563 15.0182Z" fill="#F3C46B"/>
<path d="M21.2593 29.1681C18.8914 29.1681 16.5235 29.1681 14.1524 29.1681C13.3157 29.1681 12.3822 29.0851 12.4177 27.99C12.4468 27.0322 13.3416 26.9077 14.1072 26.9045C18.8947 26.8853 23.6811 26.8853 28.4664 26.9045C29.2417 26.9045 30.1042 27.0322 30.1042 28.0283C30.1042 29.133 29.1932 29.1777 28.3533 29.1809C25.9908 29.1787 23.6261 29.1745 21.2593 29.1681Z" fill="#F3C46B"/>
<path d="M22.2607 22.2144C22.2607 22.7955 22.2963 23.3798 22.2607 23.9576C22.2652 24.0919 22.2409 24.2257 22.1897 24.3502C22.1384 24.4746 22.0613 24.587 21.9632 24.6801C21.865 24.7731 21.7482 24.8447 21.6202 24.8902C21.4923 24.9357 21.3561 24.9541 21.2205 24.9442C21.0978 24.9538 20.9745 24.9384 20.8581 24.8989C20.7416 24.8595 20.6347 24.7968 20.5438 24.7147C20.4529 24.6327 20.38 24.5331 20.3297 24.4221C20.2794 24.311 20.2528 24.191 20.2514 24.0694C20.1997 22.7497 20.1997 21.4301 20.2514 20.1105C20.2525 19.9877 20.2789 19.8663 20.3287 19.7538C20.3786 19.6413 20.4509 19.54 20.5415 19.4558C20.632 19.3717 20.7388 19.3065 20.8555 19.2643C20.9722 19.2221 21.0964 19.2037 21.2205 19.2102C21.357 19.1943 21.4952 19.2073 21.6261 19.2483C21.7571 19.2893 21.8778 19.3573 21.9801 19.4479C22.0824 19.5385 22.1642 19.6495 22.2198 19.7737C22.2754 19.8978 22.3036 20.0322 22.3027 20.168C22.3705 20.848 22.3027 21.5408 22.3027 22.2272L22.2607 22.2144Z" fill="#F3C46B"/>
</svg>
