<svg width="53" height="54" viewBox="0 0 53 54" fill="none" xmlns="http://www.w3.org/2000/svg">
<path d="M52.9998 26.478C52.9998 41.476 41.3012 53.0395 26.1561 53.0236C12.0247 53.0236 -0.0317379 40.8599 6.27666e-05 26.6649C0.00848254 19.5942 2.8216 12.8155 7.82213 7.81644C12.8227 2.8174 19.6021 0.00631193 26.6728 0C30.141 0.00676947 33.5737 0.69738 36.7747 2.03228C39.9756 3.36718 42.8819 5.32012 45.3272 7.77946C47.7725 10.2388 49.7088 13.1563 51.0254 16.3648C52.3419 19.5733 53.0129 23.0099 52.9998 26.478ZM26.5059 50.1775C39.4885 50.5313 50.2173 39.5799 50.3365 26.792C50.3869 23.6491 49.8128 20.5275 48.6475 17.6081C47.4822 14.6887 45.749 12.0297 43.5482 9.78535C41.3474 7.54096 38.7229 5.75576 35.827 4.5334C32.931 3.31105 29.8212 2.67577 26.6779 2.66445C23.5345 2.65314 20.4202 3.26603 17.5156 4.46751C14.6109 5.66899 11.9737 7.43516 9.75678 9.66365C7.53991 11.8921 5.78758 14.5386 4.6013 17.4495C3.41503 20.3604 2.81844 23.4779 2.84619 26.6211C2.79849 39.6077 13.3643 50.1298 26.5059 50.1775Z" fill="#F3C46B"/>
<path d="M25.2616 21.863C25.2616 20.6704 25.2974 19.4779 25.2616 18.2854C25.2219 17.2996 25.4603 16.4767 26.5654 16.4608C27.6705 16.4449 27.905 17.3552 27.917 18.2774C27.917 19.9311 27.9845 21.5887 27.917 23.2383C27.8613 24.6256 28.4456 25.1662 29.7932 25.0907C30.5885 25.0396 31.3868 25.0609 32.1782 25.1543C32.5164 25.1688 32.8356 25.3141 33.0686 25.5596C33.3015 25.8051 33.4298 26.1317 33.4264 26.4701C33.4507 26.6381 33.439 26.8094 33.3918 26.9724C33.3447 27.1355 33.2633 27.2866 33.153 27.4157C33.0427 27.5447 32.9062 27.6488 32.7525 27.7209C32.5988 27.7929 32.4314 27.8313 32.2617 27.8335C30.3497 27.8932 28.4297 27.909 26.5217 27.7977C25.5518 27.7421 25.3292 26.8755 25.3292 26.0209C25.3292 24.6336 25.3292 23.2383 25.3292 21.855L25.2616 21.863Z" fill="#F3C46B"/>
</svg>
