<svg width="40" height="41" viewBox="0 0 40 41" fill="none" xmlns="http://www.w3.org/2000/svg">
<path d="M10.1573 37.9543C8.673 38.0991 7.41044 36.8149 6.02468 35.9065C4.59358 34.9129 3.21329 33.8481 1.88896 32.7161C-0.266678 30.967 -0.611586 28.5804 1.03594 26.3262C4.78366 21.1896 8.58989 16.0993 12.3469 10.972C12.8642 10.2637 13.4554 9.98958 14.1668 10.4761C15.0475 11.0766 15.4848 10.5377 15.9252 9.94339C17.1754 8.25584 18.4073 6.55596 19.6452 4.85917C20.1872 4.11701 20.7354 3.42412 21.7732 4.15704C22.3552 4.56969 22.6046 4.01539 22.8879 3.70436C23.7871 2.72201 24.6648 1.71503 25.5425 0.714201C25.7666 0.432429 26.0731 0.227586 26.4192 0.128228C26.7653 0.0288709 27.1337 0.0399328 27.4732 0.15988C28.9052 0.544815 30.368 0.815833 31.8091 1.18537C33.2011 1.54259 33.472 2.15843 32.7145 3.43333C31.7907 4.97307 30.7837 6.45436 29.8167 7.96331C29.3733 8.65927 28.9237 9.31826 29.6258 10.1744C30.1678 10.8364 29.6258 11.4462 29.2439 11.9697C27.9937 13.6614 26.7249 15.3376 25.4377 16.9985C24.9542 17.6143 24.6525 18.1533 25.4377 18.8246C26.223 19.496 25.8288 20.198 25.3361 20.8663C22.9382 24.1244 20.5403 27.3866 18.1425 30.6529C16.7721 32.5006 15.3709 34.3483 13.9852 36.196C13.1137 37.3138 11.9927 37.9358 10.1573 37.9543ZM13.7573 12.8874C13.4312 13.2081 13.1228 13.5464 12.8334 13.9006C9.45012 18.5075 6.07394 23.1267 2.70499 27.7582C1.87969 28.8915 1.99671 30.0339 3.08684 30.8962C4.90053 32.3965 6.7963 33.7946 8.76538 35.0842C10.9487 36.4454 11.6632 35.7494 12.6394 34.3883C13.6156 33.0271 14.6688 31.6814 15.682 30.3264C17.9197 27.3291 20.1554 24.3317 22.3891 21.3344C23.005 20.5029 23.4114 19.8285 22.1796 18.9939C19.6329 17.2725 17.2186 15.3602 14.7427 13.531C14.4563 13.3062 14.1453 13.1338 13.7573 12.8874ZM26.9775 10.9319C26.9775 10.4761 26.6017 10.3437 26.3307 10.1404C25.2406 9.32438 24.1567 8.49912 23.048 7.71385C21.3328 6.48206 21.3451 6.52822 19.9686 8.0618C19.4929 8.6585 19.0558 9.28493 18.6598 9.93723C16.926 12.4347 16.8798 12.4562 19.2757 14.1684C20.4644 15.0245 21.5761 16.7429 22.8941 16.4595C24.1443 16.1916 24.7695 14.3039 25.6656 13.1368C26.1386 12.4248 26.5744 11.6889 26.9713 10.9319H26.9775ZM26.9929 7.81858C27.1625 7.72181 27.3205 7.60607 27.464 7.47364C28.4233 6.28603 29.2716 5.01295 29.9985 3.67046C30.0797 3.57213 30.1192 3.44607 30.1089 3.31898C30.0985 3.19188 30.039 3.07379 29.943 2.9899C29.1546 2.22619 26.9559 2.37404 26.1922 3.25169C25.8842 3.59659 25.5394 3.8922 25.2376 4.23403C24.7726 4.7637 24.169 5.26257 24.6617 6.08171C25.1883 6.97168 26.0814 7.35358 26.9929 7.81858Z" fill="#F3C46B"/>
<path d="M32.0278 40.3963C30.0815 40.3963 28.1322 40.3562 26.1768 40.3963C24.8249 40.4332 24.2029 39.9252 24.2244 38.5148C24.2768 34.9272 24.1813 31.3396 24.2829 27.7551C24.4677 21.3467 30.3679 17.7529 35.9572 20.7061C38.8519 22.2458 39.9236 24.9527 39.9913 28.1492C40.0652 31.7337 39.6402 35.3121 39.8743 38.8997C39.9482 40.0453 39.1568 40.3809 38.1652 40.384C36.1266 40.4025 34.0787 40.3963 32.0278 40.3963ZM37.7495 32.0324C37.7495 30.3911 37.8141 28.7497 37.7341 27.1053C37.5893 24.0935 35.2151 21.9164 32.1541 21.8886C29.1608 21.8579 26.6418 24.0874 26.534 27.0499C26.4201 30.2741 26.4971 33.5168 26.4447 36.7379C26.4293 37.8157 26.9251 38.1821 27.9382 38.1729C30.757 38.1483 33.5758 38.1483 36.3945 38.1729C37.3769 38.1729 37.7803 37.7787 37.7526 36.7933C37.7187 35.2166 37.7495 33.6245 37.7495 32.0324Z" fill="#F3C46B"/>
</svg>
