<svg width="40" height="39" viewBox="0 0 40 39" fill="none" xmlns="http://www.w3.org/2000/svg">
<path d="M19.9112 38.9854H3.783C0.969526 38.9854 -0.00415775 38.1812 0.0316827 35.4762C0.109337 29.6275 -0.129597 23.7964 0.10934 17.9565C0.216862 15.3246 0.0347219 12.6928 0.0108283 10.0784C0.00576895 9.39349 0.0536875 8.70919 0.154184 8.03137C0.533496 5.39947 2.06267 4.04256 4.76564 4.01916C8.39748 3.99284 12.0323 4.00162 15.6641 4.01916C16.3869 4.01916 17.047 3.94899 17.6025 3.44893C19.0331 2.1593 20.8879 1.51594 22.4052 0.331586C23.122 -0.235735 23.7999 -0.054406 24.2897 0.717617C24.4445 0.90845 24.574 1.11775 24.675 1.3405C25.4157 3.74138 27.1391 4.40518 29.4956 4.02209C29.8931 3.98841 30.2928 3.98841 30.6903 4.02209C33.5187 4.04256 34.8716 5.37607 34.9105 8.16881C34.9373 10.5668 34.9374 10.5755 37.3327 10.8767C38.7424 11.0522 39.6116 11.792 39.8595 13.1665C39.9563 13.7465 40.0032 14.3334 39.9998 14.9211C39.9998 21.6451 39.9998 28.371 39.9998 35.099C39.9998 38.1987 39.1725 39 36.0305 39L19.9112 38.9854ZM19.9292 36.8769C25.3052 36.8769 30.6813 36.8506 36.0574 36.8974C37.4134 36.8974 37.954 36.4529 37.8673 35.1048C37.7882 33.6934 37.7882 32.2788 37.8673 30.8675C37.9241 29.7299 37.4999 29.3176 36.3202 29.341C33.2349 29.4024 30.1496 29.379 27.0614 29.3585C24.2031 29.338 22.3036 27.5834 22.3096 25.0217C22.3155 22.46 24.1792 20.7376 27.0883 20.72C30.1258 20.7025 33.1603 20.6586 36.1948 20.7405C37.5328 20.7756 37.9658 20.3135 37.8703 19.0473C37.7777 17.8366 37.8703 16.6143 37.8703 15.3948C37.8703 12.9472 37.8703 12.9472 35.4331 12.9472H5.56606C4.96872 12.9472 4.29673 13.0729 3.79496 12.8507C2.09553 12.0874 2.15826 13.0787 2.16423 14.2222C2.18215 21.1411 2.16423 28.0601 2.16423 34.9849C2.16423 36.7775 2.27475 36.8857 4.11456 36.8886C9.38112 36.8925 14.6516 36.8886 19.9262 36.8769H19.9292ZM11.3692 10.2831C11.4917 10.9177 11.9666 10.8095 12.328 10.8095C16.9992 10.8095 21.6704 10.7685 26.3416 10.7744C27.2376 10.7744 27.3959 10.5112 26.9688 9.7567C25.7741 7.62486 24.5795 5.49302 23.4326 3.32317C23.0443 2.58916 22.662 2.55992 22.0676 3.03074C21.3867 3.58928 20.7445 4.23851 19.9769 4.63037C17.1425 6.06622 14.6636 8.0226 12.0054 9.71286C11.779 9.88703 11.5663 10.0776 11.3692 10.2831ZM31.6788 27.2179H34.6655C38.0793 27.2179 38.1899 27.0775 37.8494 23.7847C37.7688 22.9835 37.3924 22.6384 36.6248 22.6384C33.2947 22.6384 29.9615 22.5974 26.6313 22.6764C25.3321 22.7086 24.2599 23.9923 24.3316 25.1211C24.4122 26.3494 25.2873 27.1448 26.7627 27.1916C28.3935 27.2676 30.0361 27.2266 31.6758 27.2266L31.6788 27.2179ZM13.5465 5.99894C10.2193 5.99894 7.27448 5.91998 4.31764 6.03696C3.03933 6.08667 2.30458 7.08679 2.20601 8.30624C2.14495 8.82257 2.27288 9.34339 2.5671 9.77604C2.86132 10.2087 3.3028 10.5251 3.8129 10.6691C4.70891 10.9615 5.78413 11.1019 6.5786 10.6691C9.0447 9.33303 11.3766 7.77235 13.5435 6.00772L13.5465 5.99894ZM29.6748 5.96678H28.1814C27.5363 5.96678 27.369 6.25923 27.6617 6.79146C28.2941 7.99689 28.992 9.1683 29.7524 10.3007C30.3647 11.1575 32.3778 11.0288 32.7003 10.2246C33.7128 7.72139 32.4703 5.97263 29.6688 5.97556L29.6748 5.96678Z" fill="#F3C46B"/>
</svg>
