<svg width="29" height="23" viewBox="0 0 29 23" fill="none" xmlns="http://www.w3.org/2000/svg">
<path d="M20.9564 21.8913C20.4092 21.1426 19.9356 20.3516 19.5199 19.5132C19.783 19.4025 20.0408 19.297 20.2934 19.181C20.5512 19.0597 20.8091 18.9332 21.0617 18.8066C21.3143 18.6801 21.5563 18.543 21.7984 18.3848C21.7773 18.3637 21.7668 18.3479 21.7563 18.3321C21.6037 18.2055 21.4458 18.0842 21.2932 17.963C21.2458 17.926 21.209 17.9208 21.1564 17.9471C20.5144 18.253 19.8566 18.5113 19.1831 18.7275C18.5095 18.9437 17.8307 19.1125 17.1361 19.2337C16.7414 19.3023 16.3415 19.3656 15.9416 19.3972C15.6311 19.4236 15.3207 19.4447 15.0102 19.4552C14.6892 19.4658 14.3682 19.4763 14.042 19.471C13.7578 19.4658 13.4736 19.4394 13.1895 19.4183C12.7896 19.3919 12.3896 19.3339 11.9897 19.2759C11.5161 19.2021 11.0478 19.1019 10.5847 18.9859C9.59544 18.7328 8.63772 18.3848 7.71159 17.9524C7.64318 17.9208 7.59582 17.926 7.5432 17.9735C7.41164 18.0842 7.27483 18.1897 7.14327 18.2952C7.11696 18.3162 7.09065 18.3426 7.04855 18.3795C7.77999 18.8277 8.53248 19.1916 9.31654 19.4974C9.29023 19.7189 8.2799 21.4115 7.8905 21.8861C7.84314 21.8702 7.78526 21.8597 7.73263 21.8386C6.89069 21.5697 6.06453 21.248 5.25416 20.8789C4.41748 20.4993 3.61237 20.0616 2.83357 19.5765C2.27052 19.2285 1.71799 18.8488 1.18651 18.4533C1.13389 18.4112 1.09706 18.3742 1.09706 18.3004C1.0918 18.1581 1.07075 18.021 1.06548 17.8786C1.04444 17.5886 1.02865 17.2933 1.01286 17.0033C1.00234 16.8873 1.00234 16.7607 1.00234 16.6394C1.00234 16.2281 0.997077 15.8116 1.00234 15.4003C1.0076 15.1261 1.0076 14.8572 1.02865 14.583C1.06022 14.1295 1.09706 13.6707 1.14968 13.2173C1.2444 12.3894 1.39174 11.5668 1.57591 10.7548C1.76535 9.93745 2.00215 9.13068 2.28104 8.33446C2.52836 7.63315 2.80726 6.94766 3.11772 6.27272C3.62289 5.17593 4.20699 4.12133 4.85424 3.10365C4.91212 3.00873 4.97527 2.91909 5.03315 2.82418C5.06472 2.77145 5.10682 2.73981 5.15944 2.71344C5.63303 2.51307 6.10137 2.30742 6.58022 2.11759C7.16432 1.88558 7.75894 1.69048 8.36409 1.51647C9.07448 1.31083 9.79014 1.14736 10.5163 1.01554C10.6163 0.999719 10.6163 0.999719 10.6637 1.08409C10.8952 1.50593 11.1004 1.93831 11.2951 2.38124C11.3372 2.47616 11.3372 2.47616 11.4372 2.46034C11.7582 2.41816 12.0739 2.37597 12.3949 2.33906C12.5949 2.31797 12.7948 2.30215 12.9948 2.2916C13.3316 2.27578 13.6736 2.25997 14.0104 2.24942C14.1893 2.24415 14.3682 2.2336 14.5419 2.23887C14.8786 2.24415 15.2207 2.25997 15.5575 2.27578C16.0784 2.30215 16.5994 2.36015 17.1203 2.41816C17.215 2.4287 17.315 2.44452 17.4097 2.46034C17.5097 2.47089 17.5045 2.47089 17.5466 2.38652C17.7044 2.04377 17.8675 1.69575 18.0254 1.35301C18.0728 1.2581 18.1254 1.16318 18.178 1.06827C18.2201 0.994446 18.2306 0.994446 18.3043 1.00499C18.5201 1.04718 18.7305 1.08936 18.9463 1.13154C19.8409 1.3161 20.7196 1.55866 21.5826 1.85922C22.2983 2.10705 23.0034 2.38652 23.6875 2.71344C23.7296 2.73454 23.7664 2.76617 23.7875 2.80308C24.1821 3.39366 24.5557 3.99478 24.8925 4.62227C25.1504 5.10211 25.4029 5.5925 25.6397 6.08289C25.9713 6.76838 26.2607 7.47496 26.5133 8.19736C26.7816 8.94613 27.0132 9.71071 27.2026 10.4858C27.3552 11.1186 27.4868 11.7566 27.5815 12.3999C27.6394 12.7954 27.692 13.1909 27.7341 13.5864C27.7657 13.8922 27.7814 14.198 27.8025 14.4986C27.8288 14.8624 27.8446 15.2315 27.8446 15.5954C27.8446 15.7694 27.8656 15.9434 27.8604 16.1174C27.8551 16.4074 27.8446 16.6974 27.8341 16.9822C27.8235 17.2195 27.813 17.4515 27.792 17.6835C27.7762 17.8891 27.7551 18.1001 27.7393 18.3057C27.7341 18.3637 27.713 18.4006 27.6657 18.427C27.3815 18.6274 27.1079 18.833 26.8185 19.0281C26.1923 19.4605 25.5398 19.856 24.8662 20.2198C23.9769 20.6996 23.056 21.1215 22.1088 21.4695C21.7668 21.596 21.4195 21.7121 21.0722 21.8281C21.0564 21.865 21.009 21.8755 20.9564 21.8913ZM12.3949 12.4474C12.4002 12.2576 12.3791 12.0361 12.3318 11.8252C12.1423 10.9762 11.695 10.3171 10.9005 9.9269C10.4637 9.71071 9.99536 9.65798 9.52177 9.75817C9.01134 9.86363 8.59037 10.1326 8.24833 10.5228C7.79052 11.0501 7.56951 11.6723 7.53267 12.3683C7.51689 12.6741 7.55372 12.9747 7.62739 13.2647C7.79052 13.8817 8.10099 14.409 8.61141 14.7939C9.27971 15.3001 10.0164 15.4214 10.8005 15.0997C11.4056 14.8519 11.8266 14.3984 12.1055 13.8131C12.3054 13.386 12.3949 12.9378 12.3949 12.4474ZM18.8621 15.2685C19.2304 15.2632 19.5462 15.1946 19.8461 15.047C20.3618 14.7939 20.7354 14.3984 20.9933 13.8869C21.2932 13.2964 21.3827 12.6689 21.2932 12.015C21.2037 11.377 20.9406 10.818 20.4776 10.3698C19.9777 9.88999 19.383 9.65798 18.6832 9.72126C18.4253 9.74235 18.1833 9.8109 17.9517 9.9269C17.3834 10.2064 16.9835 10.6546 16.7257 11.2241C16.4731 11.7935 16.3994 12.3841 16.5046 12.9958C16.6152 13.6655 16.9098 14.2455 17.4255 14.699C17.8518 15.0628 18.3411 15.2579 18.8621 15.2685Z" stroke="white" stroke-miterlimit="10"/>
</svg>
