<svg width="23" height="23" viewBox="0 0 23 23" fill="none" xmlns="http://www.w3.org/2000/svg">
<path d="M22.3843 11.2181C22.3843 17.381 17.3709 22.3657 11.191 22.3837C4.99644 22.4017 -0.0839221 17.2742 0.00105065 11.0297C0.082647 5.01364 5.05383 -0.0385806 11.3002 0.000222038C17.3963 0.0384624 22.3843 5.06875 22.3843 11.2181ZM1.36005 11.1923C1.41801 16.7984 5.90019 21.0824 11.2208 21.0729C16.3929 21.0633 20.991 16.8749 21.0191 11.2108C21.0462 5.75595 16.6428 1.34032 11.1398 1.31951C5.82028 1.29927 1.38031 5.78182 1.36005 11.1923Z" fill="white"/>
<path d="M12.4617 19.0641C11.2405 19.0641 10.0605 19.0641 8.85679 19.0641C8.85679 16.4256 8.85679 13.8033 8.85679 11.1551C8.26929 11.1551 7.70487 11.1551 7.12807 11.1551C7.12807 10.2565 7.12807 9.38484 7.12807 8.47551C7.50116 8.47551 7.86581 8.47383 8.23046 8.47608C8.94514 8.47945 8.84666 8.516 8.8551 7.84848C8.8641 7.15341 8.83597 6.4544 8.89561 5.76326C9.00591 4.48671 10.043 3.44073 11.3306 3.344C12.4414 3.26021 13.559 3.26583 14.6732 3.23603C15.1875 3.22253 15.1875 3.22703 15.1875 3.74552C15.1875 4.40404 15.1875 5.06256 15.1875 5.72052C15.1875 5.8015 15.1875 5.88192 15.1875 5.98146C15.0581 5.98708 14.9484 5.99552 14.8386 5.99608C14.3446 5.99777 13.8499 5.98877 13.3564 5.99945C12.7571 6.01239 12.465 6.31268 12.4588 6.91103C12.4538 7.35248 12.4667 7.79394 12.4583 8.23539C12.4549 8.40859 12.5044 8.4682 12.6862 8.46539C13.4346 8.45527 14.1836 8.46145 14.9321 8.46145C15.0131 8.46145 15.0941 8.46145 15.2168 8.46145C15.1026 9.36854 14.9911 10.252 14.878 11.1473C14.0671 11.1473 13.2754 11.1473 12.4605 11.1473C12.4617 13.7904 12.4617 16.4199 12.4617 19.0641Z" fill="white"/>
</svg>
