<svg width="23" height="23" viewBox="0 0 23 23" fill="none" xmlns="http://www.w3.org/2000/svg">
<path d="M11.1845 22.3774C9.63076 22.3774 8.07654 22.3936 6.52283 22.3744C2.93753 22.3297 0.0429475 19.4389 0.017103 15.8555C-0.005701 12.7461 -0.005701 9.63628 0.017103 6.52693C0.043961 2.93485 2.96439 0.0293474 6.55272 0.0116C9.63481 -0.00411916 12.7174 -0.00361209 15.7995 0.0116C19.3802 0.0288403 22.3199 2.92623 22.3594 6.51375C22.3944 9.69053 22.3914 12.8683 22.3569 16.0451C22.3245 19.0515 19.9204 21.7927 16.9524 22.2679C16.5044 22.3394 16.0463 22.3713 15.5922 22.3754C14.1231 22.3886 12.6536 22.3804 11.184 22.3804C11.1845 22.3789 11.1845 22.3774 11.1845 22.3774ZM1.32707 11.2183C1.31946 11.2183 1.31186 11.2183 1.30426 11.2183C1.30426 12.6802 1.29666 14.1421 1.30933 15.604C1.31288 16.0076 1.33619 16.4183 1.41777 16.8118C1.94784 19.3659 4.08533 21.0803 6.74529 21.0874C9.70069 21.095 12.6566 21.0894 15.612 21.0889C16.3539 21.0889 17.0811 20.9855 17.7596 20.6787C19.9812 19.6747 21.0474 17.9015 21.0723 15.5046C21.1027 12.5813 21.0839 9.65707 21.0743 6.73381C21.0728 6.33931 21.0403 5.93721 20.9588 5.55184C20.4211 3.02258 18.2897 1.30767 15.6885 1.3031C12.6905 1.29803 9.69258 1.29956 6.69512 1.30564C6.36725 1.30615 6.03634 1.33556 5.71253 1.38525C3.37942 1.74273 1.43348 3.842 1.34024 6.20038C1.27386 7.87015 1.32707 9.54551 1.32707 11.2183Z" fill="white"/>
<path d="M11.2116 5.71658C14.2384 5.74193 16.6607 8.22201 16.6364 11.2715C16.6126 14.2475 14.1178 16.7088 11.1624 16.6713C8.128 16.6333 5.6824 14.1557 5.71838 11.1559C5.75486 8.13378 8.22124 5.69122 11.2116 5.71658ZM15.3381 11.1843C15.332 8.87105 13.4667 7.00352 11.1706 7.01163C8.87343 7.01975 7.00807 8.89844 7.01161 11.201C7.01516 13.5107 8.90029 15.3833 11.2126 15.3737C13.492 15.3646 15.3442 13.4834 15.3381 11.1843Z" fill="white"/>
<path d="M17.2987 6.77586C16.1236 6.78195 15.2205 5.89052 15.2155 4.71919C15.2104 3.53722 16.0901 2.64072 17.2653 2.63058C18.408 2.62043 19.3744 3.55446 19.383 4.67761C19.3922 5.84286 18.4709 6.76978 17.2987 6.77586ZM17.2835 5.45596C17.7361 5.4514 18.0589 5.13753 18.0604 4.70195C18.0614 4.28109 17.695 3.92309 17.2628 3.92259C16.8417 3.92208 16.4763 4.2963 16.4854 4.71869C16.4945 5.1426 16.8391 5.46053 17.2835 5.45596Z" fill="white"/>
</svg>
