<svg width="18" height="20" viewBox="0 0 18 20" fill="none" xmlns="http://www.w3.org/2000/svg">
<path d="M16.3909 4.69C15.3941 4.47079 14.4923 3.94144 13.815 3.17789C13.1377 2.41435 12.7197 1.45587 12.6209 0.44V0H9.17093V13.67C9.17163 14.2766 8.98146 14.868 8.62737 15.3604C8.27327 15.8529 7.7732 16.2215 7.19799 16.414C6.62278 16.6065 6.00158 16.6131 5.4224 16.4329C4.84322 16.2527 4.33542 15.8948 3.97093 15.41C3.64438 14.9808 3.44441 14.4689 3.39366 13.932C3.3429 13.3951 3.44337 12.8548 3.68371 12.372C3.92404 11.8892 4.29466 11.4834 4.75364 11.2003C5.21262 10.9172 5.74166 10.7681 6.28093 10.77C6.57917 10.7683 6.87592 10.8121 7.16093 10.9V7.4C6.82926 7.35893 6.49503 7.34222 6.16093 7.35C4.93024 7.38288 3.73585 7.77393 2.72401 8.47527C1.71218 9.1766 0.926816 10.1578 0.464103 11.2986C0.00138873 12.4395 -0.118595 13.6905 0.118843 14.8986C0.356282 16.1066 0.940836 17.2191 1.80093 18.1C2.68241 18.9962 3.81042 19.6101 5.04162 19.8638C6.27282 20.1175 7.55164 19.9994 8.71558 19.5246C9.87953 19.0498 10.8761 18.2397 11.5786 17.1973C12.281 16.1548 12.6578 14.9271 12.6609 13.67V6.67C14.0524 7.66395 15.7209 8.19565 17.4309 8.19V4.79C17.095 4.79139 16.7599 4.75787 16.4309 4.69H16.3909Z" fill="white"/>
</svg>
