<svg width="27" height="22" viewBox="0 0 27 22" fill="none" xmlns="http://www.w3.org/2000/svg">
<path d="M25.8481 3.45819C25.0528 3.81708 24.1821 4.03126 23.3231 4.17598C23.7294 4.10651 24.3273 3.37715 24.5652 3.07614C24.9309 2.62462 25.2328 2.10944 25.4011 1.55373C25.4243 1.50742 25.4417 1.45532 25.3953 1.42059C25.3431 1.39743 25.3024 1.40901 25.2618 1.43217C24.3098 1.94157 23.3231 2.31204 22.2724 2.57253C22.1854 2.59568 22.1215 2.57253 22.0635 2.52043C21.9764 2.42781 21.8951 2.33519 21.8023 2.25415C21.3611 1.87789 20.8851 1.58846 20.3511 1.36849C19.6487 1.08485 18.8825 0.963287 18.1279 1.0096C17.3907 1.05591 16.671 1.2643 16.0209 1.60583C15.3649 1.94735 14.7845 2.42202 14.3201 2.98931C13.8383 3.57975 13.4842 4.28017 13.3043 5.02112C13.1302 5.73312 13.1418 6.43933 13.2521 7.16291C13.2695 7.28447 13.2579 7.29605 13.1476 7.28447C9.0379 6.67666 5.6364 5.21214 2.8676 2.06892C2.7457 1.92999 2.68185 1.92999 2.58317 2.08049C1.37581 3.88654 1.96208 6.79244 3.47128 8.22223C3.67444 8.41325 3.8776 8.60428 4.10398 8.77794C4.02272 8.7953 3.01852 8.68532 2.1188 8.22223C1.99691 8.14697 1.93886 8.1875 1.92725 8.32642C1.91564 8.52324 1.93305 8.70268 1.96208 8.91107C2.19426 10.7461 3.46547 12.4421 5.21266 13.102C5.42163 13.1889 5.64801 13.2641 5.87439 13.3046C5.47967 13.3915 5.06755 13.4551 3.92984 13.3625C3.78473 13.3336 3.73249 13.4088 3.78473 13.542C4.63801 15.869 6.48968 16.5636 7.87118 16.9573C8.05692 16.992 8.24267 16.992 8.42842 17.0325C8.41681 17.0499 8.4052 17.0499 8.39359 17.0673C7.93503 17.7677 6.34456 18.2829 5.60157 18.5434C4.2549 19.0122 2.78633 19.2264 1.3642 19.0875C1.13782 19.0528 1.08558 19.0585 1.02753 19.0875C0.963684 19.128 1.02173 19.1801 1.09139 19.238C1.38162 19.429 1.67185 19.5969 1.97369 19.759C2.87921 20.2394 3.81955 20.6157 4.80634 20.8877C9.90279 22.2886 15.6378 21.2582 19.463 17.4725C22.464 14.4971 23.5204 10.393 23.5204 6.28304C23.5204 6.12096 23.712 6.03413 23.8223 5.9473C24.6059 5.36264 25.2328 4.66222 25.819 3.88076C25.9526 3.7071 25.9526 3.5508 25.9526 3.48713C25.9526 3.47555 25.9526 3.46397 25.9526 3.46397C25.9526 3.39451 25.9467 3.41188 25.8481 3.45819Z" stroke="white" stroke-miterlimit="10"/>
</svg>
