<svg width="81" height="96" viewBox="0 0 81 96" fill="none" xmlns="http://www.w3.org/2000/svg">
<g clip-path="url(#clip0_140_598)">
<path d="M75.1553 17.4345L60.9038 17.4507C59.9234 17.4507 59.1294 16.6555 59.1294 15.6737L59.1537 1.40857L75.1553 17.4345Z" stroke="white" stroke-width="1.5" stroke-miterlimit="10" stroke-linejoin="round"/>
<path d="M75.1552 83.6156V18.1405C75.1552 17.6861 74.977 17.256 74.661 16.9395L59.6559 1.90355C59.3399 1.58709 58.9024 1.40857 58.4568 1.40857H2.90085C1.96101 1.40857 1.20752 2.17132 1.20752 3.10448V93.1662C1.20752 94.1075 1.96912 94.8621 2.90085 94.8621H73.4538C74.3936 94.8621 75.1471 94.0994 75.1471 93.1662V89.2632" stroke="white" stroke-width="1.5" stroke-miterlimit="10" stroke-linecap="round" stroke-linejoin="round"/>
<path d="M79.9921 79.9154V85.1086C79.9921 85.7091 79.5221 86.2041 78.9469 86.2041H47.7134C47.1381 86.2041 46.6682 85.7172 46.6682 85.1086V79.9154" stroke="white" stroke-width="1.5" stroke-miterlimit="10" stroke-linecap="round" stroke-linejoin="round"/>
<path d="M55.9939 73.3022L63.3506 80.6701L70.7316 73.2778" stroke="white" stroke-width="1.5" stroke-miterlimit="10" stroke-linecap="round" stroke-linejoin="round"/>
<path d="M63.3748 39.6193V80.2562" stroke="white" stroke-width="1.5" stroke-miterlimit="10" stroke-linecap="round" stroke-linejoin="round"/>
<path d="M45.534 65.9992H8.26442C7.63246 65.9992 7.13013 65.488 7.13013 64.8632V42.3863C7.13013 41.7533 7.64056 41.2502 8.26442 41.2502H45.5259C46.1578 41.2502 46.6602 41.7615 46.6602 42.3863V64.8632C46.6683 65.488 46.1578 65.9992 45.534 65.9992Z" stroke="white" stroke-width="1.5" stroke-miterlimit="10" stroke-linecap="round" stroke-linejoin="round"/>
</g>
<defs>
<clipPath id="clip0_140_598">
<rect width="79.9999" height="94.6788" fill="white" transform="translate(0.599854 0.800049)"/>
</clipPath>
</defs>
</svg>
