<svg width="80" height="95" viewBox="0 0 80 95" fill="none" xmlns="http://www.w3.org/2000/svg">
<g clip-path="url(#clip0_140_615)">
<path d="M74.5553 82.5717V17.2894C74.5553 16.8364 74.3771 16.4076 74.0611 16.092L59.0561 1.10033C58.7401 0.784803 58.3026 0.606812 57.857 0.606812H2.301C1.36116 0.606812 0.607666 1.36732 0.607666 2.29773V92.0942C0.607666 93.0327 1.36926 93.7851 2.301 93.7851H72.8539C73.7938 93.7851 74.5473 93.0246 74.5473 92.0942V88.2026" stroke="white" stroke-width="1.5" stroke-miterlimit="10" stroke-linecap="round" stroke-linejoin="round"/>
<path d="M74.6202 16.5855L60.3605 16.6017C59.3802 16.6017 58.5862 15.8089 58.5862 14.8299L58.6105 0.606812L74.6202 16.5855Z" stroke="white" stroke-width="1.5" stroke-miterlimit="10" stroke-linejoin="round"/>
<path d="M79.3922 78.8824V84.0604C79.3922 84.6591 78.9223 85.1526 78.347 85.1526H47.1135C46.5383 85.1526 46.0684 84.6671 46.0684 84.0604V78.8824" stroke="white" stroke-width="1.5" stroke-miterlimit="10" stroke-linecap="round" stroke-linejoin="round"/>
<path d="M55.394 72.2887L62.7507 79.6348L70.1317 72.2644" stroke="white" stroke-width="1.5" stroke-miterlimit="10" stroke-linecap="round" stroke-linejoin="round"/>
<path d="M13.49 27.7585H46.0685" stroke="white" stroke-width="1.5" stroke-miterlimit="10" stroke-linecap="round" stroke-linejoin="round"/>
<path d="M13.49 36.8523H46.0685" stroke="white" stroke-width="1.5" stroke-miterlimit="10" stroke-linecap="round" stroke-linejoin="round"/>
<path d="M13.49 45.9379H46.0685" stroke="white" stroke-width="1.5" stroke-miterlimit="10" stroke-linecap="round" stroke-linejoin="round"/>
<path d="M13.49 55.0316H46.0685" stroke="white" stroke-width="1.5" stroke-miterlimit="10" stroke-linecap="round" stroke-linejoin="round"/>
<path d="M13.49 64.1172H28.414" stroke="white" stroke-width="1.5" stroke-miterlimit="10" stroke-linecap="round" stroke-linejoin="round"/>
<path d="M62.7749 38.705V79.2222" stroke="white" stroke-width="1.5" stroke-miterlimit="10" stroke-linecap="round" stroke-linejoin="round"/>
</g>
<defs>
<clipPath id="clip0_140_615">
<rect width="79.9999" height="94.3999" fill="white"/>
</clipPath>
</defs>
</svg>
